# xmcd
#
# Track frame offsets:
#	150
#	21909
#	56313
#	87371
#	118012
#	137589
#	162686
#	185734
#	207828
#	228036
#	254310
#	281305
#	301541
#	332013
#
# Disc length: 4662 seconds
#
# Revision: 1
# Processed by: cddbd v1.5.2PL0 Copyright (c) Steve Scherf et al.
# Submitted via: audiograbber 1.83.01
#
DISCID=b812340e
DTITLE=Texas Terraplanes - Voodoo Mamma
DYEAR=2003
DGENRE=Blues
TTITLE0=Cross Road Blues
TTITLE1=Voodoo Mamma
TTITLE2=Hey Stevie
TTITLE3=Third Stone From The Sun
TTITLE4=Play Your Own Blues
TTITLE5=Blue Suede Blues
TTITLE6=Guitara Boogie
TTITLE7=Traveling Riverside Blues
TTITLE8=Beging For Mercy
TTITLE9=Lyda Lee
TTITLE10=Rambling Blues
TTITLE11=Jukebox Blues
TTITLE12=Betty Sue
TTITLE13=B.I.F. 
EXTD=
EXTT0=
EXTT1=
EXTT2=
EXTT3=
EXTT4=
EXTT5=
EXTT6=
EXTT7=
EXTT8=
EXTT9=
EXTT10=
EXTT11=
EXTT12=
EXTT13=
PLAYORDER=
